<mxfile host="app.diagrams.net" modified="2022-02-25T10:52:46.780Z" agent="5.0 (Windows NT 10.0; Win64; x64) AppleWebKit/537.36 (KHTML, like Gecko) Chrome/98.0.4758.102 Safari/537.36 Edg/98.0.1108.56" etag="pgSp9eDHo2quwX5jJ-7L" version="15.9.1" type="github">
  <diagram id="prtHgNgQTEPvFCAcTncT" name="Page-1">
    <mxGraphModel dx="2813" dy="834" grid="1" gridSize="10" guides="1" tooltips="1" connect="1" arrows="1" fold="1" page="1" pageScale="1" pageWidth="827" pageHeight="1169" math="0" shadow="0">
      <root>
        <mxCell id="0" />
        <mxCell id="1" parent="0" />
        <mxCell id="elumgovZGRoCONuqZKSV-24" style="edgeStyle=orthogonalEdgeStyle;rounded=0;orthogonalLoop=1;jettySize=auto;html=1;entryX=0.5;entryY=1;entryDx=0;entryDy=0;" edge="1" parent="1" source="elumgovZGRoCONuqZKSV-12" target="elumgovZGRoCONuqZKSV-23">
          <mxGeometry relative="1" as="geometry" />
        </mxCell>
        <mxCell id="elumgovZGRoCONuqZKSV-12" value="&amp;nbsp;Deployment" style="rounded=0;whiteSpace=wrap;html=1;align=left;" vertex="1" parent="1">
          <mxGeometry y="380" width="1060" height="230" as="geometry" />
        </mxCell>
        <mxCell id="elumgovZGRoCONuqZKSV-11" value="Replicaset&lt;br&gt;BE" style="rounded=0;whiteSpace=wrap;html=1;" vertex="1" parent="1">
          <mxGeometry x="80" y="420" width="460" height="150" as="geometry" />
        </mxCell>
        <mxCell id="elumgovZGRoCONuqZKSV-5" value="Node" style="rounded=0;whiteSpace=wrap;html=1;" vertex="1" parent="1">
          <mxGeometry x="115" y="450" width="160" height="90" as="geometry" />
        </mxCell>
        <mxCell id="elumgovZGRoCONuqZKSV-2" value="Pod" style="rounded=1;whiteSpace=wrap;html=1;" vertex="1" parent="1">
          <mxGeometry x="130" y="500" width="30" height="30" as="geometry" />
        </mxCell>
        <mxCell id="elumgovZGRoCONuqZKSV-4" value="Pod" style="rounded=1;whiteSpace=wrap;html=1;" vertex="1" parent="1">
          <mxGeometry x="240" y="500" width="30" height="30" as="geometry" />
        </mxCell>
        <mxCell id="elumgovZGRoCONuqZKSV-6" value="Node" style="rounded=0;whiteSpace=wrap;html=1;" vertex="1" parent="1">
          <mxGeometry x="350" y="450" width="160" height="90" as="geometry" />
        </mxCell>
        <mxCell id="elumgovZGRoCONuqZKSV-7" value="Pod" style="rounded=1;whiteSpace=wrap;html=1;" vertex="1" parent="1">
          <mxGeometry x="360" y="500" width="30" height="30" as="geometry" />
        </mxCell>
        <mxCell id="elumgovZGRoCONuqZKSV-9" value="Pod" style="rounded=1;whiteSpace=wrap;html=1;" vertex="1" parent="1">
          <mxGeometry x="470" y="500" width="30" height="30" as="geometry" />
        </mxCell>
        <mxCell id="elumgovZGRoCONuqZKSV-14" value="Replicaset&lt;br&gt;FE" style="rounded=0;whiteSpace=wrap;html=1;" vertex="1" parent="1">
          <mxGeometry x="560" y="420" width="460" height="150" as="geometry" />
        </mxCell>
        <mxCell id="elumgovZGRoCONuqZKSV-15" value="Node" style="rounded=0;whiteSpace=wrap;html=1;" vertex="1" parent="1">
          <mxGeometry x="595" y="450" width="160" height="90" as="geometry" />
        </mxCell>
        <mxCell id="elumgovZGRoCONuqZKSV-16" value="Pod" style="rounded=1;whiteSpace=wrap;html=1;" vertex="1" parent="1">
          <mxGeometry x="610" y="500" width="30" height="30" as="geometry" />
        </mxCell>
        <mxCell id="elumgovZGRoCONuqZKSV-17" value="Pod" style="rounded=1;whiteSpace=wrap;html=1;" vertex="1" parent="1">
          <mxGeometry x="720" y="500" width="30" height="30" as="geometry" />
        </mxCell>
        <mxCell id="elumgovZGRoCONuqZKSV-18" value="Node" style="rounded=0;whiteSpace=wrap;html=1;" vertex="1" parent="1">
          <mxGeometry x="830" y="450" width="160" height="90" as="geometry" />
        </mxCell>
        <mxCell id="elumgovZGRoCONuqZKSV-19" value="Pod" style="rounded=1;whiteSpace=wrap;html=1;" vertex="1" parent="1">
          <mxGeometry x="840" y="500" width="30" height="30" as="geometry" />
        </mxCell>
        <mxCell id="elumgovZGRoCONuqZKSV-20" value="Pod" style="rounded=1;whiteSpace=wrap;html=1;" vertex="1" parent="1">
          <mxGeometry x="950" y="500" width="30" height="30" as="geometry" />
        </mxCell>
        <mxCell id="elumgovZGRoCONuqZKSV-28" style="edgeStyle=orthogonalEdgeStyle;rounded=0;orthogonalLoop=1;jettySize=auto;html=1;" edge="1" parent="1" source="elumgovZGRoCONuqZKSV-23" target="elumgovZGRoCONuqZKSV-27">
          <mxGeometry relative="1" as="geometry">
            <mxPoint x="520" y="90" as="targetPoint" />
            <Array as="points">
              <mxPoint x="1083" y="150" />
              <mxPoint x="1083" y="150" />
            </Array>
          </mxGeometry>
        </mxCell>
        <mxCell id="elumgovZGRoCONuqZKSV-23" value="Service (Load Balance)" style="rounded=0;whiteSpace=wrap;html=1;" vertex="1" parent="1">
          <mxGeometry x="425" y="200" width="1315" height="60" as="geometry" />
        </mxCell>
        <mxCell id="elumgovZGRoCONuqZKSV-25" value="" style="endArrow=none;dashed=1;html=1;dashPattern=1 3;strokeWidth=2;rounded=0;" edge="1" parent="1">
          <mxGeometry width="50" height="50" relative="1" as="geometry">
            <mxPoint y="230" as="sourcePoint" />
            <mxPoint x="425" y="230" as="targetPoint" />
          </mxGeometry>
        </mxCell>
        <mxCell id="elumgovZGRoCONuqZKSV-26" value="" style="endArrow=none;dashed=1;html=1;dashPattern=1 3;strokeWidth=2;rounded=0;" edge="1" parent="1">
          <mxGeometry width="50" height="50" relative="1" as="geometry">
            <mxPoint x="1740" y="230" as="sourcePoint" />
            <mxPoint x="2165" y="230" as="targetPoint" />
          </mxGeometry>
        </mxCell>
        <mxCell id="elumgovZGRoCONuqZKSV-27" value="CLient" style="shape=umlActor;verticalLabelPosition=bottom;verticalAlign=top;html=1;outlineConnect=0;" vertex="1" parent="1">
          <mxGeometry x="1067.5" y="10" width="30" height="60" as="geometry" />
        </mxCell>
        <mxCell id="elumgovZGRoCONuqZKSV-44" style="edgeStyle=orthogonalEdgeStyle;rounded=0;orthogonalLoop=1;jettySize=auto;html=1;entryX=0.516;entryY=1.055;entryDx=0;entryDy=0;entryPerimeter=0;" edge="1" parent="1" source="elumgovZGRoCONuqZKSV-29" target="elumgovZGRoCONuqZKSV-23">
          <mxGeometry relative="1" as="geometry" />
        </mxCell>
        <mxCell id="elumgovZGRoCONuqZKSV-29" value="&amp;nbsp;Deployment" style="rounded=0;whiteSpace=wrap;html=1;align=left;" vertex="1" parent="1">
          <mxGeometry x="1110" y="380" width="1060" height="230" as="geometry" />
        </mxCell>
        <mxCell id="elumgovZGRoCONuqZKSV-30" value="Replicaset&lt;br&gt;BE" style="rounded=0;whiteSpace=wrap;html=1;" vertex="1" parent="1">
          <mxGeometry x="1200" y="420" width="460" height="150" as="geometry" />
        </mxCell>
        <mxCell id="elumgovZGRoCONuqZKSV-31" value="Node" style="rounded=0;whiteSpace=wrap;html=1;" vertex="1" parent="1">
          <mxGeometry x="1235" y="450" width="160" height="90" as="geometry" />
        </mxCell>
        <mxCell id="elumgovZGRoCONuqZKSV-32" value="Pod" style="rounded=1;whiteSpace=wrap;html=1;" vertex="1" parent="1">
          <mxGeometry x="1250" y="500" width="30" height="30" as="geometry" />
        </mxCell>
        <mxCell id="elumgovZGRoCONuqZKSV-33" value="Pod" style="rounded=1;whiteSpace=wrap;html=1;" vertex="1" parent="1">
          <mxGeometry x="1360" y="500" width="30" height="30" as="geometry" />
        </mxCell>
        <mxCell id="elumgovZGRoCONuqZKSV-34" value="Node" style="rounded=0;whiteSpace=wrap;html=1;" vertex="1" parent="1">
          <mxGeometry x="1470" y="450" width="160" height="90" as="geometry" />
        </mxCell>
        <mxCell id="elumgovZGRoCONuqZKSV-35" value="Pod" style="rounded=1;whiteSpace=wrap;html=1;" vertex="1" parent="1">
          <mxGeometry x="1480" y="500" width="30" height="30" as="geometry" />
        </mxCell>
        <mxCell id="elumgovZGRoCONuqZKSV-36" value="Pod" style="rounded=1;whiteSpace=wrap;html=1;" vertex="1" parent="1">
          <mxGeometry x="1590" y="500" width="30" height="30" as="geometry" />
        </mxCell>
        <mxCell id="elumgovZGRoCONuqZKSV-37" value="Replicaset&lt;br&gt;FE" style="rounded=0;whiteSpace=wrap;html=1;" vertex="1" parent="1">
          <mxGeometry x="1680" y="420" width="460" height="150" as="geometry" />
        </mxCell>
        <mxCell id="elumgovZGRoCONuqZKSV-38" value="Node" style="rounded=0;whiteSpace=wrap;html=1;" vertex="1" parent="1">
          <mxGeometry x="1715" y="450" width="160" height="90" as="geometry" />
        </mxCell>
        <mxCell id="elumgovZGRoCONuqZKSV-39" value="Pod" style="rounded=1;whiteSpace=wrap;html=1;" vertex="1" parent="1">
          <mxGeometry x="1730" y="500" width="30" height="30" as="geometry" />
        </mxCell>
        <mxCell id="elumgovZGRoCONuqZKSV-40" value="Pod" style="rounded=1;whiteSpace=wrap;html=1;" vertex="1" parent="1">
          <mxGeometry x="1840" y="500" width="30" height="30" as="geometry" />
        </mxCell>
        <mxCell id="elumgovZGRoCONuqZKSV-41" value="Node" style="rounded=0;whiteSpace=wrap;html=1;" vertex="1" parent="1">
          <mxGeometry x="1950" y="450" width="160" height="90" as="geometry" />
        </mxCell>
        <mxCell id="elumgovZGRoCONuqZKSV-42" value="Pod" style="rounded=1;whiteSpace=wrap;html=1;" vertex="1" parent="1">
          <mxGeometry x="1960" y="500" width="30" height="30" as="geometry" />
        </mxCell>
        <mxCell id="elumgovZGRoCONuqZKSV-43" value="Pod" style="rounded=1;whiteSpace=wrap;html=1;" vertex="1" parent="1">
          <mxGeometry x="2070" y="500" width="30" height="30" as="geometry" />
        </mxCell>
      </root>
    </mxGraphModel>
  </diagram>
</mxfile>
